<?xml version="1.0" encoding="utf-8"?>
<!-- Generator: Adobe Illustrator 25.0.0, SVG Export Plug-In . SVG Version: 6.00 Build 0)  -->
<svg version="1.1" id="Layer_1" xmlns="http://www.w3.org/2000/svg" xmlns:xlink="http://www.w3.org/1999/xlink" x="0px" y="0px"
	 viewBox="0 0 175.9 195.2" style="enable-background:new 0 0 175.9 195.2;" xml:space="preserve">
<style type="text/css">
	.st0{fill:#293C5A;}
</style>
<path id="XMLID_16_" class="st0" d="M131.3,50.1L89.2,79.9V29.3L45.1,0.8l-0.3-0.2L0.4,32v105.8l87.4,56.3l0.3,0.2l87.3-61.9
	l0.2-0.2V78.6L131.3,50.1z M96,78c2.9,2.4,6.4,6.5,6.4,11.5c0,0.2,0,0.3,0,0.5l-12.2-7.8L96,78z M101.9,92.5
	c-0.7,2.4-2.2,4.9-4.9,6.9c-3.2,2.4-9.4,5-16.5,4.8c0,0-8.7-0.1-13.7-5.6l21.2-15L101.9,92.5z M89.2,141.2l11.4-8l-8.7,28.2
	l-2.6-5.9L89.2,141.2z M88,139.1l-41-26.4l5.6-4c2.7,2,11.2,7.8,18.4,9.4c3.9,0.9,8.6,1.6,16.3,1.1c0,0,6.8-0.6,13.3-3.7
	c0,0,6.3-1.9,12.4-9.3c0,0,1.5-1.7,3-4.6l12.9,8.3L88,139.1z M86.8,151.7l-10.5-6.2c0,0-1.1-0.4-1.7,0.4l-5.4,7.8l-5.7-27.5l23.3,15
	V151.7z M86.8,81.6L66.2,96.2c0.8-11.7,6.7-19.3,6.7-19.3c4.9-6.7,10.5-7.6,10.5-7.6c1.6-0.4,2.7-0.3,3.4-0.1V81.6z M86.8,53.5
	c-7.1-0.9-15.7,4.9-15.7,4.9c-10,6-16.5,21.8-16.5,21.8c-5.2,11.8-3.9,23.2-3.4,26.6l-5.1,3.6V60.8l40.7-28.9V53.5z M13.1,80.8V65.5
	l7.4,4.3c4,2.8,5,5.8,5,5.8c2,4.7-0.9,7.9-0.9,7.9c-1.9,1.6-5.4,0.4-5.4,0.4C17.3,83.5,13.1,80.8,13.1,80.8z M43.6,162.8L2.8,136.5
	v-26.7l9.6,6.3c0.9,0.6,0.9-1.3,0.9-1.3l-0.1-20.2l3.1,2c0.4,0.2,0.7,0.7,0.7,0.7l7.9,25.4c0.9,2.3,2.1,2.7,2.1,2.7l12.5,7.9
	c1.6,0.7,1.2-1.3,1.2-1.3l-7.6-25.4l10.5,6.8C43.6,113.4,43.6,162.8,43.6,162.8z M43.6,110.5L32,103l-1.6-5.4
	c5.4-1.7,7.9-7.5,7.9-7.5c3.1-7.5-0.8-17.5-0.8-17.5C33.6,62.9,25,58,25,58L2.8,44.4v-9.8l40.8,26.3V110.5z M3.8,32.5l41-29
	l40.8,26.3l-41,29L3.8,32.5z M46,164.3v-49.5l1.9,1.2L58,167.2c0,0,0,1.3,0.9,2.1l11.1,7.2c0,0,0.8,0.7,1.5,0.1l7.2-10l3.4,16.2
	c0,0,0.3,1.4,0.9,1.7l3.9,2.5v3.7L46,164.3z M130,161.6l-40.8,28.9v-4.3l9.9-7c0,0,0.7-0.7,1.1-1.9l18.5-57.2l11.3-8V161.6z
	 M117.1,99.5c0.7-1.9,1.3-4.1,1.4-6.6c0,0,0.8-7.7-2.6-14.4c0,0-2.6-5.2-7-9.6l22.4-15.8l41,26.4l-20.7,14.7l-10.8-6.4
	c0,0-1-0.8-2.1-0.1L125.4,97c0,0-1.1,0.7,0.1,1.7l10.5,6.5l-4.9,3.5L117.1,99.5z M173.2,131l-40.8,28.9v-49.4l4.9-3.4l0.4,42.4
	c0,0,0.2,1,1,0.7l12.9-9.1c0,0,1.1-0.7,1.2-1.9v-43l20.4-14.5L173.2,131z"/>
</svg>
